<svg width="62" height="34" viewBox="0 0 62 34" fill="none" xmlns="http://www.w3.org/2000/svg">
<g clip-path="url(#clip0_101_2)">
<path d="M15.0801 5.86523L12.1543 28H3.41797L0.0957031 5.86523H6.16602C6.86784 11.9629 7.36914 17.1172 7.66992 21.3281C7.9707 17.0716 8.28516 13.2891 8.61328 9.98047L9.00977 5.86523H15.0801ZM21.5879 5.86523V8.75H15.9004V5.86523H21.5879ZM21.5879 9.85742V28H15.9004V9.85742H21.5879ZM29.2715 5.86523V28H23.584V5.86523H29.2715ZM36.9551 5.86523V28H31.2676V5.86523H36.9551ZM43.8867 16.8848H38.7051V15.668C38.7051 14.2643 38.8646 13.1842 39.1836 12.4277C39.5117 11.6621 40.1634 10.9876 41.1387 10.4043C42.1139 9.82096 43.3809 9.5293 44.9395 9.5293C46.8079 9.5293 48.2161 9.86198 49.1641 10.5273C50.112 11.1836 50.6816 11.9948 50.873 12.9609C51.0645 13.918 51.1602 15.8958 51.1602 18.8945V28H45.7871V26.3867C45.4499 27.0339 45.0124 27.5215 44.4746 27.8496C43.946 28.1686 43.3125 28.3281 42.5742 28.3281C41.6081 28.3281 40.7194 28.0592 39.9082 27.5215C39.1061 26.9746 38.7051 25.7852 38.7051 23.9531V22.4629C38.7051 21.1048 38.9193 20.1797 39.3477 19.6875C39.776 19.1953 40.8379 18.6211 42.5332 17.9648C44.347 17.2539 45.3177 16.7754 45.4453 16.5293C45.5729 16.2832 45.6367 15.7819 45.6367 15.0254C45.6367 14.0775 45.5638 13.4622 45.418 13.1797C45.2812 12.888 45.0488 12.7422 44.7207 12.7422C44.347 12.7422 44.1146 12.8652 44.0234 13.1113C43.9323 13.3483 43.8867 13.9727 43.8867 14.9844V16.8848ZM45.6367 19.373C44.7526 20.0202 44.2376 20.5625 44.0918 21C43.9551 21.4375 43.8867 22.0664 43.8867 22.8867C43.8867 23.8255 43.946 24.4316 44.0645 24.7051C44.1921 24.9785 44.4382 25.1152 44.8027 25.1152C45.1491 25.1152 45.3724 25.0104 45.4727 24.8008C45.582 24.582 45.6367 24.0169 45.6367 23.1055V19.373ZM61.5781 5.86523V28H56.0547V16.1328C56.0547 14.4193 56.0137 13.3893 55.9316 13.043C55.8496 12.6966 55.6217 12.4368 55.248 12.2637C54.8835 12.0814 54.0632 11.9902 52.7871 11.9902H52.2402V9.40625C54.9108 8.83203 56.9388 7.65169 58.3242 5.86523H61.5781Z" fill="white"/>
</g>
<defs>
<clipPath id="clip0_101_2">
<rect width="62" height="34" fill="white"/>
</clipPath>
</defs>
</svg>
